<?xml version="1.0" encoding="iso-8859-1"?>
<!-- Generator: Adobe Illustrator 19.0.0, SVG Export Plug-In . SVG Version: 6.00 Build 0)  -->
<svg version="1.1" id="Layer_1" xmlns="http://www.w3.org/2000/svg" xmlns:xlink="http://www.w3.org/1999/xlink" x="0px" y="0px"
	 viewBox="0 0 491.52 491.52" style="enable-background:new 0 0 491.52 491.52;" xml:space="preserve">
<g>
	<g>
		<path d="M491.52,0H174.08v46.974c-41.608,9.682-79.351,30.751-109.48,61.551C22.94,150.8,0,206.81,0,266.24
			s22.94,115.44,64.57,157.685c42.64,43.59,99.72,67.595,160.71,67.595s118.07-24.005,160.68-67.57
			c41.66-42.27,64.6-98.28,64.6-157.71c0-16.32-2.102-34.071-5.856-51.2h46.816V0z M450.95,20.48L332.8,108.64L214.65,20.48H450.95z
			 M194.56,31.033l83.639,62.412l-83.639,86.11V31.033z M161.688,71.643c-16.597,17.441-30.426,41.381-40.742,69.649
			c-12.186-7.259-23.636-15.799-34.199-25.569C108.445,95.652,133.886,80.715,161.688,71.643z M174.08,88.501v74.956
			c-12.003-3.089-23.615-7.242-34.754-12.408C148.252,125.694,160.082,104.183,174.08,88.501z M72.479,130.398
			c12.883,11.973,26.958,22.309,42.029,30.862c-8.254,28.701-13.124,60.866-13.948,94.74H20.974
			C23.282,209.197,41.272,165.317,72.479,130.398z M20.974,276.48h79.653c0.819,34.328,5.624,66.444,13.761,94.841
			c-14.958,8.517-28.928,18.896-41.814,30.872C41.317,367.274,23.284,323.343,20.974,276.48z M86.939,416.766
			c10.522-9.721,21.858-18.215,33.907-25.416c10.423,28.592,24.425,52.299,40.894,69.542
			C134.137,451.901,108.768,436.929,86.939,416.766z M215.07,469.989c-30.91-6.199-58.315-40.16-75.5-88.548
			c23.501-10.878,48.994-17.147,75.5-18.443V469.989z M215.07,342.518c-28.63,1.273-56.222,7.768-81.721,19.206
			c-7.146-25.811-11.431-54.789-12.245-85.244h93.966V342.518z M215.07,256h-94.032c0.793-30.219,5.051-59.177,12.156-85.154
			c13.069,5.863,26.772,10.342,40.886,13.626v30.569h40.99V256z M235.55,469.983V363.001c26.485,1.302,51.958,7.571,75.44,18.441
			C293.816,429.798,266.436,463.752,235.55,469.983z M329.456,276.48c-0.814,30.456-5.099,59.433-12.245,85.244
			c-25.481-11.43-53.052-17.924-81.661-19.203V276.48H329.456z M235.55,256v-40.96h90.634c1.829,12.429,2.972,26.414,3.343,40.96
			H235.55z M288.818,460.894c16.469-17.242,30.471-40.951,40.895-69.543c12.049,7.201,23.385,15.693,33.906,25.414
			C341.8,436.926,316.429,451.9,288.818,460.894z M377.982,402.189c-12.885-11.975-26.854-22.353-41.81-30.869
			c8.136-28.396,12.941-60.513,13.761-94.841h79.653C427.276,323.332,409.249,367.256,377.982,402.189z M350.074,256
			c-0.28-11.897-1.13-26.243-3.144-40.96h76.718c3.254,13.549,5.334,27.551,6.046,40.96H350.074z M208.546,194.56l86.211-88.757
			L332.8,134.19l38.043-28.388l86.211,88.757H208.546z M471.04,179.556l-83.639-86.11l83.639-62.412V179.556z"/>
	</g>
</g>
<g>
</g>
<g>
</g>
<g>
</g>
<g>
</g>
<g>
</g>
<g>
</g>
<g>
</g>
<g>
</g>
<g>
</g>
<g>
</g>
<g>
</g>
<g>
</g>
<g>
</g>
<g>
</g>
<g>
</g>
</svg>
