<?xml version="1.0" encoding="iso-8859-1"?>
<!-- Generator: Adobe Illustrator 19.0.0, SVG Export Plug-In . SVG Version: 6.00 Build 0)  -->
<svg version="1.1" id="Capa_1" xmlns="http://www.w3.org/2000/svg" xmlns:xlink="http://www.w3.org/1999/xlink" x="0px" y="0px"
	 viewBox="0 0 512.032 512.032" style="enable-background:new 0 0 512.032 512.032;" xml:space="preserve">
<circle style="fill:#EAEAEA;" cx="256" cy="256" r="216.72"/>
<path style="fill:#999999;" d="M256,445.384c-104.432,0-189.384-84.952-189.384-189.384S151.568,66.616,256,66.616
	S445.384,151.568,445.384,256S360.432,445.384,256,445.384z M256,74.616C155.984,74.616,74.616,155.984,74.616,256
	S155.984,437.384,256,437.384S437.384,356.016,437.384,256S356.016,74.616,256,74.616z"/>
<circle style="fill:#FFFFFF;" cx="256" cy="256.56" r="155.896"/>
<path style="fill:#999999;" d="M257.128,414.48l-0.016-4c2.64-0.016,5.264-0.104,7.88-0.256l0.232,4
	C262.544,414.376,259.84,414.464,257.128,414.48z M249.032,414.328c-2.72-0.12-5.408-0.312-8.08-0.56l0.376-3.984
	c2.608,0.248,5.232,0.432,7.872,0.544L249.032,414.328z M273.296,413.544l-0.44-3.984c2.632-0.28,5.24-0.632,7.824-1.056l0.64,3.952
	C278.664,412.88,275.992,413.248,273.296,413.544z M232.92,412.8c-2.696-0.392-5.352-0.848-7.984-1.384l0.784-3.92
	c2.568,0.512,5.168,0.96,7.784,1.352L232.92,412.8z M289.288,410.96l-0.84-3.904c2.584-0.552,5.152-1.168,7.688-1.848l1.032,3.856
	C294.56,409.76,291.936,410.392,289.288,410.96z M217.04,409.624c-2.632-0.664-5.232-1.4-7.808-2.2l1.184-3.816
	c2.504,0.776,5.032,1.496,7.6,2.144L217.04,409.624z M304.92,406.752l-1.232-3.8c2.504-0.824,4.992-1.704,7.456-2.648l1.44,3.736
	C310.056,405.016,307.504,405.912,304.92,406.752z M201.56,404.832c-2.536-0.928-5.04-1.928-7.504-2.984l1.56-3.68
	c2.408,1.032,4.84,2,7.32,2.912L201.56,404.832z M320.072,400.944l-1.624-3.656c2.416-1.072,4.8-2.2,7.144-3.392l1.816,3.56
	C324.992,398.68,322.544,399.84,320.072,400.944z M186.704,398.488c-2.432-1.184-4.824-2.44-7.168-3.744l1.936-3.504
	c2.288,1.272,4.616,2.496,6.984,3.648L186.704,398.488z M334.528,393.608l-1.984-3.472c2.288-1.312,4.536-2.688,6.752-4.112
	l2.168,3.36C339.192,390.856,336.88,392.264,334.528,393.608z M172.56,390.632c-2.288-1.432-4.544-2.92-6.76-4.464l2.296-3.28
	c2.152,1.504,4.344,2.952,6.584,4.352L172.56,390.632z M348.168,384.832l-2.344-3.248c2.144-1.536,4.24-3.144,6.296-4.784
	l2.496,3.128C352.496,381.608,350.352,383.24,348.168,384.832z M159.288,381.384c-2.136-1.648-4.224-3.36-6.264-5.128l2.608-3.032
	c1.992,1.72,4.024,3.384,6.112,5L159.288,381.384z M360.808,374.696l-2.656-2.984c1.968-1.76,3.888-3.552,5.776-5.4l2.8,2.856
	C364.792,371.064,362.824,372.904,360.808,374.696z M147.032,370.824c-1.952-1.864-3.856-3.784-5.72-5.744l2.904-2.752
	c1.816,1.912,3.672,3.784,5.576,5.6L147.032,370.824z M372.352,363.344l-2.936-2.704c1.784-1.936,3.504-3.92,5.184-5.952l3.08,2.544
	C375.952,359.328,374.176,361.36,372.352,363.344z M135.888,359.056c-1.76-2.056-3.456-4.16-5.104-6.296l3.168-2.44
	c1.6,2.096,3.264,4.136,4.976,6.144L135.888,359.056z M382.672,350.88l-3.2-2.392c1.568-2.112,3.096-4.256,4.552-6.448l3.328,2.232
	C385.84,346.512,384.288,348.728,382.672,350.88z M126.016,346.2c-1.528-2.216-3.008-4.488-4.44-6.784l3.408-2.112
	c1.384,2.248,2.832,4.456,4.328,6.624L126.016,346.2z M391.672,337.448l-3.44-2.064c1.352-2.248,2.64-4.536,3.872-6.872l3.528,1.872
	C394.376,332.784,393.056,335.136,391.672,337.448z M117.504,332.416c-1.296-2.376-2.536-4.784-3.712-7.216l3.592-1.736
	c1.16,2.376,2.368,4.72,3.632,7.032L117.504,332.416z M399.24,323.152l-3.624-1.688c1.104-2.376,2.152-4.784,3.144-7.224
	l3.704,1.504C401.456,318.24,400.376,320.712,399.24,323.152z M110.44,317.816c-1.048-2.488-2.032-5.008-2.952-7.552l3.768-1.36
	c0.888,2.488,1.856,4.944,2.872,7.368L110.44,317.816z M405.304,308.144l-3.784-1.296c0.856-2.488,1.648-4.992,2.384-7.528
	l3.84,1.112C407,303.024,406.176,305.592,405.304,308.144z M104.92,302.544c-0.784-2.576-1.504-5.176-2.16-7.816l3.888-0.952
	c0.624,2.552,1.328,5.096,2.096,7.608L104.92,302.544z M409.792,292.592l-3.888-0.904c0.592-2.552,1.128-5.136,1.592-7.736
	l3.936,0.72C410.944,287.336,410.4,289.976,409.792,292.592z M101.04,286.84c-0.52-2.648-0.968-5.32-1.344-8l3.952-0.56
	c0.376,2.608,0.808,5.208,1.312,7.784L101.04,286.84z M412.656,276.648l-3.968-0.496c0.336-2.6,0.592-5.224,0.8-7.856l3.984,0.296
	C413.264,271.296,412.992,273.984,412.656,276.648z M98.768,270.8c-0.232-2.672-0.416-5.368-0.512-8.08l4-0.16
	c0.104,2.648,0.264,5.28,0.496,7.872L98.768,270.8z M413.872,260.504l-4-0.096c0.032-1.272,0.048-2.544,0.048-3.832
	c0-2.648-0.072-5.272-0.2-7.888l4-0.2c0.136,2.68,0.2,5.384,0.2,8.096C413.92,257.896,413.904,259.2,413.872,260.504z
	 M102.136,254.68l-4-0.064c0.04-2.712,0.144-5.408,0.304-8.088l4,0.248C102.272,249.4,102.168,252.032,102.136,254.68z
	 M409.128,240.832c-0.264-2.624-0.6-5.232-1-7.832l3.952-0.608c0.416,2.656,0.752,5.328,1.032,8.032L409.128,240.832z
	 M103.136,238.912l-3.968-0.472c0.312-2.688,0.688-5.36,1.136-8.008l3.944,0.656C103.808,233.68,103.448,236.288,103.136,238.912z
	 M406.728,225.224c-0.528-2.584-1.136-5.152-1.8-7.688l3.872-1.016c0.68,2.616,1.296,5.24,1.84,7.888L406.728,225.224z
	 M105.728,223.352l-3.904-0.856c0.584-2.648,1.232-5.272,1.944-7.864l3.856,1.064C106.928,218.216,106.296,220.768,105.728,223.352z
	 M402.736,209.96c-0.808-2.52-1.664-5.016-2.592-7.488l3.752-1.408c0.944,2.528,1.832,5.088,2.656,7.672L402.736,209.96z
	 M109.912,208.128l-3.8-1.248c0.84-2.576,1.768-5.12,2.752-7.624l3.72,1.456C111.632,203.152,110.744,205.624,109.912,208.128z
	 M397.168,195.144c-1.056-2.416-2.168-4.808-3.352-7.16l3.576-1.8c1.208,2.416,2.36,4.864,3.448,7.36L397.168,195.144z
	 M115.632,193.448l-3.64-1.656c1.12-2.456,2.28-4.88,3.504-7.272l3.56,1.832C117.864,188.672,116.72,191.04,115.632,193.448z
	 M390.12,181.008c-1.296-2.296-2.648-4.552-4.064-6.784l3.376-2.144c1.448,2.272,2.84,4.592,4.168,6.952L390.12,181.008z
	 M122.84,179.424l-3.472-2c1.36-2.344,2.776-4.64,4.248-6.896l3.344,2.184C125.536,174.904,124.16,177.144,122.84,179.424z
	 M381.648,167.664c-1.52-2.152-3.112-4.256-4.736-6.328l3.144-2.472c1.672,2.12,3.288,4.272,4.856,6.488L381.648,167.664z
	 M131.448,166.208l-3.232-2.36c1.592-2.176,3.232-4.328,4.928-6.424l3.112,2.512C134.6,161.992,132.992,164.08,131.448,166.208z
	 M371.864,155.272c-1.736-1.984-3.512-3.92-5.352-5.824l2.872-2.784c1.88,1.944,3.712,3.928,5.496,5.96L371.864,155.272z
	 M141.368,153.944l-2.984-2.672c1.808-2.016,3.656-3.976,5.552-5.888l2.84,2.816C144.928,150.064,143.128,151.976,141.368,153.944z
	 M360.88,143.936c-1.928-1.8-3.904-3.536-5.92-5.232l2.576-3.064c2.064,1.744,4.088,3.528,6.064,5.36L360.88,143.936z
	 M152.48,142.728l-2.688-2.952c2-1.824,4.04-3.584,6.128-5.304l2.544,3.096C156.424,139.232,154.432,140.952,152.48,142.728z
	 M348.8,133.792c-2.096-1.584-4.232-3.128-6.408-4.6l2.248-3.312c2.232,1.52,4.424,3.096,6.576,4.728L348.8,133.792z
	 M164.672,132.712l-2.376-3.216c2.176-1.6,4.392-3.152,6.648-4.64l2.2,3.328C168.952,129.64,166.792,131.16,164.672,132.712z
	 M335.752,124.92c-2.24-1.368-4.52-2.672-6.84-3.92l1.888-3.512c2.384,1.28,4.728,2.616,7.032,4.016L335.752,124.92z
	 M177.864,123.992l-2.048-3.44c2.32-1.376,4.688-2.696,7.088-3.952l1.856,3.544C182.432,121.376,180.128,122.648,177.864,123.992z
	 M321.872,117.448c-2.368-1.128-4.768-2.184-7.192-3.184l1.512-3.704c2.504,1.032,4.968,2.128,7.4,3.28L321.872,117.448z
	 M191.848,116.664l-1.656-3.64c2.456-1.128,4.936-2.184,7.456-3.192l1.488,3.72C196.68,114.52,194.256,115.568,191.848,116.664z
	 M307.304,111.432c-2.48-0.864-4.984-1.68-7.512-2.44l1.144-3.832c2.592,0.776,5.168,1.6,7.704,2.496L307.304,111.432z
	 M206.544,110.816l-1.296-3.784c2.56-0.872,5.144-1.672,7.744-2.408l1.096,3.84C211.544,109.184,209.032,109.968,206.544,110.816z
	 M292.168,106.96c-2.552-0.616-5.128-1.168-7.728-1.648l0.736-3.936c2.664,0.496,5.312,1.064,7.928,1.696L292.168,106.96z
	 M221.736,106.52l-0.888-3.904c2.624-0.592,5.272-1.12,7.944-1.584l0.688,3.936C226.864,105.424,224.28,105.944,221.736,106.52z
	 M276.664,104.072c-2.6-0.352-5.208-0.632-7.848-0.848l0.328-3.984c2.704,0.216,5.392,0.512,8.056,0.864L276.664,104.072z
	 M237.288,103.824l-0.488-3.968c2.664-0.328,5.36-0.584,8.064-0.776l0.28,3.984C242.504,103.248,239.888,103.504,237.288,103.824z
	 M260.928,102.768c-2.632-0.088-5.264-0.112-7.888-0.048l-0.096-4c2.712-0.056,5.44-0.04,8.112,0.048L260.928,102.768z"/>
<rect y="248" width="117.232" height="16"/>
<rect x="394.8" y="248" width="117.232" height="16"/>
<rect x="248" y="394.8" width="16" height="117.232"/>
<rect x="248" width="16" height="117.232"/>
<g>
	<path style="fill:#999999;" d="M159.272,237.728l6.144,23.6c1.344,5.176,2.592,9.976,3.464,14.776h0.28
		c1.056-4.696,2.592-9.688,4.128-14.68l7.584-23.696h7.096l7.2,23.216c1.728,5.56,3.072,10.464,4.128,15.16h0.288
		c0.768-4.696,2.008-9.592,3.544-15.064l6.616-23.312h8.352l-14.968,46.44h-7.68L188.352,262c-1.632-5.176-2.976-9.792-4.136-15.256
		h-0.184c-1.152,5.568-2.592,10.368-4.216,15.352l-7.488,22.072h-7.68l-14.008-46.44H159.272z"/>
	<path style="fill:#999999;" d="M231.048,237.728l6.144,23.6c1.344,5.176,2.592,9.976,3.456,14.776h0.288
		c1.056-4.696,2.592-9.688,4.128-14.68l7.584-23.696h7.096l7.2,23.216c1.728,5.56,3.072,10.464,4.128,15.16h0.28
		c0.776-4.696,2.016-9.592,3.552-15.064l6.616-23.312h8.352l-14.968,46.44h-7.68L260.128,262c-1.632-5.176-2.976-9.792-4.128-15.256
		h-0.192c-1.152,5.568-2.592,10.368-4.216,15.352l-7.488,22.072h-7.68l-14.008-46.44H231.048z"/>
	<path style="fill:#999999;" d="M302.832,237.728l6.144,23.6c1.344,5.176,2.592,9.976,3.456,14.776h0.288
		c1.056-4.696,2.592-9.688,4.128-14.68l7.584-23.696h7.096l7.2,23.216c1.728,5.56,3.072,10.464,4.128,15.16h0.28
		c0.776-4.696,2.016-9.592,3.552-15.064l6.616-23.312h8.352l-14.968,46.44h-7.68L331.912,262c-1.632-5.176-2.976-9.792-4.128-15.256
		h-0.192c-1.152,5.568-2.592,10.368-4.216,15.352l-7.488,22.072h-7.68l-14.008-46.44H302.832z"/>
</g>
<g>
</g>
<g>
</g>
<g>
</g>
<g>
</g>
<g>
</g>
<g>
</g>
<g>
</g>
<g>
</g>
<g>
</g>
<g>
</g>
<g>
</g>
<g>
</g>
<g>
</g>
<g>
</g>
<g>
</g>
</svg>
