<?xml version="1.0" encoding="iso-8859-1"?>
<!-- Generator: Adobe Illustrator 16.0.0, SVG Export Plug-In . SVG Version: 6.00 Build 0)  -->
<!DOCTYPE svg PUBLIC "-//W3C//DTD SVG 1.1//EN" "http://www.w3.org/Graphics/SVG/1.1/DTD/svg11.dtd">
<svg version="1.1" id="Capa_1" xmlns="http://www.w3.org/2000/svg" xmlns:xlink="http://www.w3.org/1999/xlink" x="0px" y="0px"
	 width="462.807px" height="462.807px" viewBox="0 0 462.807 462.807" style="enable-background:new 0 0 462.807 462.807;"
	 xml:space="preserve">
<g>
	<path d="M361.449,199.29H3.957c-2.184,0-3.957,1.779-3.957,3.972v246.267c0,2.192,1.773,3.972,3.957,3.972h357.492
		c2.187,0,3.972-1.779,3.972-3.972V203.268C365.427,201.069,363.642,199.29,361.449,199.29z M301,231.066l-118.29,86.746
		L64.424,231.066H301z M333.65,421.724H31.776V246.541L180.361,355.5c1.404,1.028,3.298,1.028,4.705,0L333.65,246.541V421.724z
		 M462.807,171.734c0,9.49-0.869,18.788-2.417,27.854l-2.844,13.222c-10.267,39.263-34.908,72.776-67.926,94.582v-21.734
		c1.944-1.525,3.895-3.062,5.751-4.682c-1.437-3.605-3.47-6.915-5.751-10.096v-63.443c15.835-5.332,38.213-2.228,53.332-10.169
		c1.484-8.296,2.306-16.819,2.306-25.541c0-54.237-29.968-101.583-74.21-126.399c0.71,0.662,1.454,1.339,2.11,1.986
		c28.537,28.525,13.169,30.73,17.562,63.656c0,10.973,22.673,9.138,20.492,28.889c-4.392,19.757-5.137,39.159-24.885,22.691
		c-19.741-16.471-21.952,3.032-39.507-5.491c-8.784-4.392-13.17-24.143-24.14-24.143c-30.736,2.184-10.971,63.65-48.291,46.101
		c-43.246-22.659-1.607-99.345-47.047-132.304c-28.266,16.58-50.431,42.454-62.288,73.426c10.95,3.133,22.05,7.879,25.626,16.606
		c8.594,19.012-3.535,27.618-9.673,40.276c-0.237,1.894-0.532,3.697-0.851,5.452h-41.789c-0.237-3.558-0.399-7.137-0.399-10.749
		c0-89.569,72.868-162.422,162.428-162.422C389.957,9.306,462.807,82.165,462.807,171.734z"/>
</g>
<g>
</g>
<g>
</g>
<g>
</g>
<g>
</g>
<g>
</g>
<g>
</g>
<g>
</g>
<g>
</g>
<g>
</g>
<g>
</g>
<g>
</g>
<g>
</g>
<g>
</g>
<g>
</g>
<g>
</g>
</svg>
