<?xml version="1.0" encoding="iso-8859-1"?>
<!-- Generator: Adobe Illustrator 19.0.0, SVG Export Plug-In . SVG Version: 6.00 Build 0)  -->
<svg version="1.1" id="Capa_1" xmlns="http://www.w3.org/2000/svg" xmlns:xlink="http://www.w3.org/1999/xlink" x="0px" y="0px"
	 viewBox="0 0 512.021 512.021" style="enable-background:new 0 0 512.021 512.021;" xml:space="preserve">
<g>
	<g>
		<path d="M511.946,98.518c-0.416-4.288-2.528-8.256-5.888-10.944c-38.944-31.36-83.616-54.88-131.168-69.664
			c-0.544-0.224-1.12-0.448-1.696-0.64c-0.704-0.224-1.408-0.384-2.144-0.512c-74.112-22.176-155.904-22.176-230.016,0
			c-0.768,0.128-1.472,0.32-2.176,0.512c-0.608,0.192-1.152,0.416-1.696,0.64C89.578,32.694,44.938,56.214,5.994,87.574
			c-3.36,2.72-5.504,6.656-5.92,10.976c-0.416,4.288,0.928,8.576,3.712,11.872l51.872,61.088c5.568,6.592,15.36,7.584,22.144,2.208
			c28.448-22.56,60.32-39.168,94.752-49.344c4.128-1.216,7.584-4.032,9.6-7.84c2.016-3.808,2.4-8.256,1.12-12.352L164.01,43.574
			c59.744-15.36,124.288-15.36,184.032,0l-19.264,60.608c-1.312,4.096-0.896,8.544,1.12,12.352c2.016,3.808,5.472,6.624,9.6,7.84
			c34.432,10.176,66.304,26.784,94.72,49.344c2.944,2.336,6.464,3.456,9.952,3.456c4.544,0,9.056-1.92,12.224-5.664l51.84-61.12
			C511.018,107.094,512.362,102.838,511.946,98.518z M70.282,139.318l-31.2-36.8c28.832-21.12,60.672-37.792,94.272-49.632
			l14.592,45.824C120.298,108.47,94.282,122.07,70.282,139.318z M441.77,139.318c-24-17.216-50.016-30.816-77.664-40.608
			l14.56-45.824c33.632,11.84,65.44,28.544,94.304,49.632L441.77,139.318z"/>
	</g>
</g>
<g>
	<g>
		<path d="M336.01,191.894h-16v-48c0-8.832-7.168-16-16-16c-8.832,0-16,7.168-16,16v48h-64v-48c0-8.832-7.168-16-16-16
			c-8.832,0-16,7.168-16,16v48h-16c-97.056,0-176,78.944-176,176v112c0,17.632,14.368,32,32,32h448c17.632,0,32-14.368,32-32v-112
			C512.01,270.838,433.066,191.894,336.01,191.894z M480.01,479.894h-448v-112c0-79.392,64.608-144,144-144h160
			c79.392,0,144,64.608,144,144V479.894z"/>
	</g>
</g>
<g>
	<g>
		<path d="M256.01,255.894c-52.928,0-96,43.072-96,96c0,52.928,43.072,96,96,96c52.928,0,96-43.072,96-96
			C352.01,298.966,308.938,255.894,256.01,255.894z M256.01,415.894c-35.296,0-64-28.704-64-64c0-35.296,28.704-64,64-64
			s64,28.704,64,64C320.01,387.19,291.306,415.894,256.01,415.894z"/>
	</g>
</g>
<g>
</g>
<g>
</g>
<g>
</g>
<g>
</g>
<g>
</g>
<g>
</g>
<g>
</g>
<g>
</g>
<g>
</g>
<g>
</g>
<g>
</g>
<g>
</g>
<g>
</g>
<g>
</g>
<g>
</g>
</svg>
