<?xml version="1.0" encoding="iso-8859-1"?>
<!-- Generator: Adobe Illustrator 19.0.0, SVG Export Plug-In . SVG Version: 6.00 Build 0)  -->
<svg version="1.1" id="Capa_1" xmlns="http://www.w3.org/2000/svg" xmlns:xlink="http://www.w3.org/1999/xlink" x="0px" y="0px"
	 viewBox="0 0 503.703 503.703" style="enable-background:new 0 0 503.703 503.703;" xml:space="preserve">
<g>
	<g>
		<path d="M390.095,67.737C345.397,24.664,288.508,0.283,227.556,0.283S108.902,23.851,66.641,67.737
			C23.568,110.81,0,166.886,0,227.839c0,60.14,23.568,117.029,65.829,160.102c13.003,13.003,26.819,24.381,42.26,33.321
			l8.127-13.816c-11.378-7.314-22.756-16.254-33.321-25.194c13.003-12.19,26.819-21.943,41.448-30.07
			c4.063,12.19,8.94,23.568,14.629,34.133L153.6,379c-5.689-10.565-10.565-21.943-14.629-34.133
			c24.381-11.378,52.013-17.879,79.644-18.692v56.889h16.254v-56.889c21.13,0.813,42.26,4.876,62.578,11.378l5.689-15.441
			c-21.943-7.314-44.698-12.19-67.454-13.003v-73.143h97.524c0,19.505-1.625,38.197-4.876,56.076l16.254,2.438
			c3.251-18.692,4.876-39.01,4.876-58.514h34.133v-16.254H349.46c-0.813-36.571-5.689-69.892-13.816-99.962
			c17.067-8.94,33.321-21.13,47.949-34.946c9.752,10.565,17.879,21.13,25.194,33.321l13.816-8.127
			C413.664,94.556,402.286,80.74,390.095,67.737z M172.292,23.851c-19.505,17.879-36.571,45.511-47.949,79.644
			c-14.629-8.127-28.444-18.692-41.448-30.07C108.902,49.858,139.784,32.791,172.292,23.851z M71.517,84.804
			c14.629,13.816,30.883,25.194,47.949,34.946c-8.127,30.07-13.816,63.391-13.816,99.962H16.254
			C18.692,169.324,37.384,122.188,71.517,84.804z M72.33,370.873c-34.946-37.384-53.638-84.521-56.076-134.908h89.397
			c0.813,35.759,5.689,69.079,14.629,99.962C103.213,344.867,86.959,357.058,72.33,370.873z M219.429,309.108
			c-29.257,0.813-57.702,7.314-84.521,19.505c-8.127-28.444-12.19-60.14-13.003-92.648h97.524V309.108z M219.429,219.712h-97.524
			c0.813-33.321,5.689-65.016,13.003-92.648c26.006,11.378,54.451,18.692,84.521,19.505V219.712z M219.429,130.315
			c-27.632-0.813-54.451-7.314-79.644-18.692c17.879-52.825,46.324-89.397,79.644-94.273V130.315z M235.683,17.35
			c33.321,4.876,62.578,41.448,79.644,93.46c-25.194,11.378-52.013,17.879-79.644,18.692V17.35z M235.683,219.712v-73.143
			c29.257-0.813,58.514-7.314,84.521-19.505c7.314,27.632,12.19,59.327,13.003,92.648H235.683z M329.956,103.496
			c-11.378-34.133-28.444-61.765-47.949-79.644c33.321,8.94,63.39,26.006,89.397,49.575
			C358.4,85.616,344.584,95.369,329.956,103.496z"/>
	</g>
</g>
<g>
	<g>
		<path d="M478.679,145.756l-25.194-25.194c-8.94-8.94-25.194-8.94-34.133,0l-39.822,39.822c-9.752,9.752-9.752,25.194,0,34.133
			l13.816,13.816c4.063,4.064,4.876,10.565,1.625,16.254c-48.762,78.019-91.022,121.092-169.854,169.854
			c-4.876,3.251-12.19,2.438-16.254-1.625L195.048,379c-8.94-8.94-25.194-8.94-34.133,0l-40.635,39.822
			c-7.314,7.314-13.816,21.943,0,34.133l25.194,25.194c43.073,43.073,96.711,20.317,111.34,9.752
			c99.962-69.079,162.54-131.657,231.619-231.619C512,222.15,507.936,175.826,478.679,145.756z M395.784,189.642l-5.689-5.689
			c-3.251-3.251-3.251-8.127,0-11.378l39.822-39.822c3.251-3.251,8.127-3.251,11.378,0l5.689,5.689L395.784,189.642z
			 M137.346,447.267l-5.689-5.689c-3.251-3.251-3.251-8.127,0-11.378l39.822-39.822c4.876-4.876,9.752-1.625,11.378,0l5.689,5.689
			L137.346,447.267z M474.616,248.156c-67.454,97.524-129.219,159.289-226.743,227.556c-12.19,8.127-56.076,26.819-90.21-8.127
			l-8.127-8.127l52.013-52.013c9.752,6.502,22.755,7.314,32.508,1.625c80.457-49.575,125.156-94.273,174.73-174.73
			c6.502-10.565,5.689-23.568-1.625-32.508l52.013-52.013l8.127,8.127C490.87,181.515,494.933,219.712,474.616,248.156z"/>
	</g>
</g>
<g>
</g>
<g>
</g>
<g>
</g>
<g>
</g>
<g>
</g>
<g>
</g>
<g>
</g>
<g>
</g>
<g>
</g>
<g>
</g>
<g>
</g>
<g>
</g>
<g>
</g>
<g>
</g>
<g>
</g>
</svg>
