<?xml version="1.0" encoding="iso-8859-1"?>
<!-- Generator: Adobe Illustrator 19.0.0, SVG Export Plug-In . SVG Version: 6.00 Build 0)  -->
<svg version="1.1" id="Capa_1" xmlns="http://www.w3.org/2000/svg" xmlns:xlink="http://www.w3.org/1999/xlink" x="0px" y="0px"
	 viewBox="0 0 503.873 503.873" style="enable-background:new 0 0 503.873 503.873;" xml:space="preserve">
<g>
	<g>
		<path d="M432.356,65.524c-118.654-21.943-242.184-21.943-360.838,0C30.07,72.838,0,109.41,0,151.67v35.759
			c0,13.816,10.565,24.381,24.381,24.381H81.27c13.816,0,24.381-10.565,24.381-24.381v-20.317c0-5.689,4.063-11.378,9.752-13.003
			c2.438-0.813,4.063-0.813,6.502-1.625v24.381L48.762,380.038v66.641H81.27v8.127h16.254v-8.127h308.825v8.127h16.254v-8.127
			h32.508v-66.641l-73.143-203.175v-24.381c2.438,0.813,4.064,0.813,6.502,1.625c5.689,1.625,9.752,6.502,9.752,13.003v20.317
			c0,13.816,10.565,24.381,24.381,24.381h56.889c13.816,0,24.381-10.565,24.381-24.381V151.67
			C503.873,109.41,473.803,72.838,432.356,65.524z M89.397,187.429c0,4.063-3.251,8.127-8.127,8.127H24.381
			c-4.876,0-8.127-3.251-8.127-8.127v-8.127h73.143V187.429z M438.857,384.102v47.137h0H65.016v-47.137l70.705-196.673h232.432
			L438.857,384.102z M138.159,171.175v-21.13c10.565-2.438,21.943-4.063,32.508-5.689v26.819H138.159z M186.921,171.175V142.73
			c43.073-4.876,86.959-4.876,130.032,0v28.444H186.921z M333.206,171.175v-26.819c10.565,1.625,21.943,3.251,32.508,5.689v21.13
			H333.206z M487.619,187.429c0,4.063-3.251,8.127-8.127,8.127h-56.889c-4.876,0-8.127-3.251-8.127-8.127v-8.127h73.143V187.429z
			 M487.619,163.048h-73.143c-2.438-12.19-10.565-21.13-22.756-24.381c-45.511-10.565-92.648-16.254-139.784-16.254
			c-47.136,0-94.273,5.689-139.784,16.254c-12.19,2.438-20.317,12.19-21.943,24.381H17.067V151.67
			c0-34.133,24.381-63.39,58.514-69.892c115.403-21.13,237.308-21.13,353.524,0c34.133,6.502,58.514,35.759,58.514,69.892V163.048z"
			/>
	</g>
</g>
<g>
	<g>
		<path d="M251.937,203.683c-49.575,0-89.397,39.822-89.397,89.397c0,49.575,39.822,89.397,89.397,89.397
			s89.397-39.822,89.397-89.397C341.333,243.505,301.511,203.683,251.937,203.683z M251.937,366.222
			c-40.635,0-73.143-32.508-73.143-73.143c0-40.635,32.508-73.143,73.143-73.143c40.635,0,73.143,32.508,73.143,73.143
			C325.079,333.714,292.571,366.222,251.937,366.222z"/>
	</g>
</g>
<g>
	<g>
		<path d="M251.937,244.317c-26.819,0-48.762,21.943-48.762,48.762s21.943,48.762,48.762,48.762s48.762-21.943,48.762-48.762
			S278.756,244.317,251.937,244.317z M251.937,325.587c-17.879,0-32.508-14.629-32.508-32.508c0-17.879,14.629-32.508,32.508-32.508
			c17.879,0,32.508,14.629,32.508,32.508C284.444,310.959,269.816,325.587,251.937,325.587z"/>
	</g>
</g>
<g>
	<g>
		<rect x="243.81" y="398.73" width="16.254" height="16.254"/>
	</g>
</g>
<g>
	<g>
		<rect x="211.302" y="398.73" width="16.254" height="16.254"/>
	</g>
</g>
<g>
	<g>
		<rect x="276.318" y="398.73" width="16.254" height="16.254"/>
	</g>
</g>
<g>
</g>
<g>
</g>
<g>
</g>
<g>
</g>
<g>
</g>
<g>
</g>
<g>
</g>
<g>
</g>
<g>
</g>
<g>
</g>
<g>
</g>
<g>
</g>
<g>
</g>
<g>
</g>
<g>
</g>
</svg>
