<?xml version="1.0" encoding="iso-8859-1"?>
<!-- Generator: Adobe Illustrator 19.0.0, SVG Export Plug-In . SVG Version: 6.00 Build 0)  -->
<svg version="1.1" id="Capa_1" xmlns="http://www.w3.org/2000/svg" xmlns:xlink="http://www.w3.org/1999/xlink" x="0px" y="0px"
	 viewBox="0 0 507.964 507.964" style="enable-background:new 0 0 507.964 507.964;" xml:space="preserve">
<g>
	<g>
		<rect x="393.3" y="401.482" width="65.5" height="16.4"/>
	</g>
</g>
<g>
	<g>
		<polygon points="163.9,90.182 163.9,163.882 122.9,163.882 122.9,180.282 180.2,180.282 180.2,90.182 		"/>
	</g>
</g>
<g>
	<g>
		<path d="M496.1,375.782c-18.5-43.6-55.8-75.3-101-86.3c17.5-22.8,28.3-52.3,28.3-79.1c0-50.6-39.4-92-89.2-95.3
			c-24.2-69-88.6-115-162.2-115c-94.8,0-172,77.2-172,172s77.2,172,172,172c1.8,0,3.8-0.2,5.6-0.2c-7.3,9.7-13.5,20.3-18.4,31.9
			c-17.4,41.2-15.6,87.7,5,127.7l2.3,4.4h322.3l2.3-4.4C511.7,463.482,513.5,416.982,496.1,375.782z M407,210.282
			c0,26.6-12.6,56.6-31.5,77h-0.1l-2.4,2.4c-4.8,4.9-11.1,10.2-18.6,14.3c-0.2,0.1-0.5,0.3-0.7,0.4c-1.6,0.8-3.2,1.6-4.8,2.3
			c-0.9,0.4-1.7,0.7-2.6,1c-1.3,0.5-2.6,1-3.9,1.4c-1.4,0.4-2.9,0.7-4.3,1c-0.9,0.2-1.8,0.5-2.8,0.6c-2.5,0.4-5,0.6-7.5,0.6
			s-5.1-0.2-7.5-0.6c-1-0.1-1.9-0.4-2.8-0.6c-1.5-0.3-2.9-0.6-4.3-1c-1.3-0.4-2.6-0.9-3.9-1.4c-0.9-0.3-1.8-0.7-2.6-1
			c-1.6-0.7-3.2-1.5-4.8-2.3c-0.3-0.1-0.5-0.3-0.8-0.4c-7.5-4.2-13.7-9.5-18.5-14.3c-7.5-7.6-14.1-16.7-19.4-26.6l-1.1-2.1
			c-0.3-0.7-0.6-1.3-1-2c-1.7-3.5-3.3-7-4.7-10.6c-0.3-0.8-0.6-1.6-0.9-2.4c-1.1-3.1-2.1-6.3-3-9.4c-0.3-1-0.6-2-0.8-3.1
			c-0.8-3-1.3-6-1.8-9c-0.2-1-0.4-2-0.5-3c-0.5-3.9-0.8-7.7-0.8-11.3c0-3.3,0.3-6.6,0.7-9.9c0.1-1,0.3-1.9,0.4-2.9
			c0.4-2.4,0.9-4.7,1.5-7.1c0.2-0.9,0.4-1.9,0.7-2.8c0.9-2.9,1.9-5.8,3.1-8.6c0.4-1,0.9-1.9,1.4-2.9c0.9-1.9,1.9-3.7,2.9-5.5
			c0.6-1.1,1.3-2.2,2-3.3c1.2-1.9,2.6-3.8,4-5.6c0.7-0.9,1.3-1.7,2.1-2.6c1.8-2.1,3.7-4.1,5.7-6.1c0.7-0.7,1.4-1.3,2.1-1.9
			c2.1-1.9,4.4-3.7,6.7-5.4c0.3-0.2,0.5-0.4,0.8-0.6c2.9-2,5.9-3.8,9.1-5.4c10.8-5.6,23-8.7,36-8.7
			C371.4,131.082,407,166.582,407,210.282z M232.7,222.182c0.1,0.6,0.2,1.1,0.2,1.7c1.6,12.6,5.2,25.4,10.7,37.6
			c-18.2,14.6-40.3,23.3-63.5,25v-16h-16.2v15.9c-56.7-4-102.1-49.4-106.1-106.1h16v-16.4h-16c4-56.7,49.4-102.1,106.1-106.1v16
			h16.4v-16.1c43.3,3.1,81.3,30.6,97.9,70.9c-0.1,0.1-0.2,0.2-0.3,0.2c-0.9,0.5-1.7,1.1-2.6,1.6c-1.1,0.7-2.1,1.5-3.2,2.3
			c-1.2,0.9-2.4,1.7-3.6,2.7c-0.3,0.2-0.6,0.5-0.9,0.7c-0.9,0.7-1.7,1.5-2.5,2.2c-1.2,1.1-2.5,2.2-3.6,3.3c-0.6,0.5-1.2,1.1-1.7,1.6
			c-0.7,0.7-1.3,1.4-1.9,2c-0.8,0.9-1.7,1.8-2.5,2.8c-0.9,1-1.7,2.1-2.6,3.1c-0.1,0.1-0.1,0.1-0.2,0.2c-1,1.3-2,2.6-2.9,3.9
			c-0.7,1-1.4,2-2.1,3.1c-0.7,1-1.3,2-1.9,3.1c-0.6,1-1.2,1.9-1.7,2.9c-0.3,0.6-0.6,1.1-0.9,1.7c-0.8,1.5-1.5,3-2.2,4.5
			c-0.4,0.9-0.9,1.8-1.3,2.8c-0.2,0.6-0.5,1.1-0.7,1.7c-0.5,1.3-1,2.7-1.4,4.1c-0.4,1.2-0.9,2.4-1.2,3.7c-0.2,0.7-0.4,1.3-0.6,2
			c-0.3,1-0.5,2.1-0.8,3.2c0,0.1,0,0.1,0,0.2c-0.3,1.2-0.6,2.4-0.9,3.6c-0.3,1.4-0.4,2.8-0.7,4.2c-0.2,1-0.3,2.1-0.5,3.1
			c-0.1,0.6-0.2,1.2-0.3,1.9c-0.3,3.1-0.5,6.3-0.5,9.4C232,214.282,232.3,218.282,232.7,222.182z M172,327.782
			c-85.8,0-155.6-69.9-155.6-155.7s69.8-155.6,155.6-155.6c64.7,0,121.7,39.3,144.9,98.8c-2,0.2-4,0.6-6,1c-0.9,0.2-1.8,0.2-2.7,0.4
			c-3,0.6-5.9,1.4-8.8,2.3c-0.9,0.3-1.7,0.6-2.6,0.9c-1.4,0.5-2.8,0.9-4.1,1.5c-20.3-48.4-67.7-80.4-120.7-80.4
			c-72.2,0-131,58.8-131,131.1s58.8,131.1,131,131.1c28.8,0,56.6-9.6,79.4-27c2.7,4.6,5.7,9.1,8.9,13.3c-3.1,0.7-6.1,1.6-9.1,2.5
			c-0.2,0.1-0.3,0.1-0.5,0.2c-2.9,0.9-5.8,1.9-8.6,3c-0.1,0-0.1,0-0.2,0.1c-18.1,7-34.5,17.5-48.4,30.8
			C185.6,327.182,178.7,327.782,172,327.782z M478.8,491.482H176.7c-16.3-34.6-17.2-74.2-2.3-109.4c6.5-15.4,15.7-29.1,26.8-40.6
			h0.1l1.9-1.9c11.7-11.6,25.2-20.7,39.9-27.1c0.5-0.2,1.1-0.5,1.6-0.7c2.2-0.9,4.5-1.8,6.8-2.6c0.8-0.3,1.6-0.6,2.4-0.8
			c2.2-0.7,4.4-1.4,6.6-2c0.8-0.2,1.6-0.5,2.4-0.7c3-0.8,6-1.4,9-2h1.3c1.9,1.8,3.9,3.4,5.8,5.1c0.3,0.2,0.6,0.5,0.8,0.7
			c1.6,1.3,3.3,2.5,5,3.7c1,0.7,2,1.4,3,2c1.3,0.9,2.7,1.7,4.1,2.5c1.8,1,3.6,1.9,5.4,2.8c0.8,0.4,1.5,0.8,2.3,1.2
			c2.6,1.2,5.3,2.1,8,3c0.8,0.3,1.6,0.5,2.5,0.7c2.1,0.6,4.2,1.1,6.4,1.4c0.9,0.1,1.7,0.3,2.6,0.4c2.9,0.4,5.8,0.7,8.8,0.7
			c2.9,0,5.9-0.3,8.8-0.7c0.9-0.1,1.7-0.3,2.6-0.4c2.1-0.4,4.2-0.8,6.3-1.4c0.8-0.2,1.7-0.4,2.5-0.7c2.7-0.8,5.4-1.8,8-3
			c0.8-0.3,1.5-0.8,2.3-1.2c1.8-0.9,3.6-1.8,5.3-2.8c1.4-0.8,2.7-1.7,4.1-2.5c1-0.6,1.9-1.3,2.9-2c1.7-1.2,3.4-2.4,5-3.7
			c0.3-0.2,0.5-0.4,0.8-0.6c2-1.6,4-3.3,5.9-5.1h1.3c43.6,7.9,80,37.2,97.5,78.4C495.9,417.282,495,456.882,478.8,491.482z"/>
	</g>
</g>
<g>
	<g>
		<rect x="319.5" y="352.382" width="16.4" height="16.4"/>
	</g>
</g>
<g>
	<g>
		<rect x="319.5" y="385.082" width="16.4" height="16.4"/>
	</g>
</g>
<g>
	<g>
		<rect x="319.5" y="417.882" width="16.4" height="16.4"/>
	</g>
</g>
<g>
</g>
<g>
</g>
<g>
</g>
<g>
</g>
<g>
</g>
<g>
</g>
<g>
</g>
<g>
</g>
<g>
</g>
<g>
</g>
<g>
</g>
<g>
</g>
<g>
</g>
<g>
</g>
<g>
</g>
</svg>
